<svg width="314" height="125" viewBox="0 0 314 125" fill="none" xmlns="http://www.w3.org/2000/svg">
<g clip-path="url(#clip0_54_548)">
<path d="M134.309 7.94629V12.1528L308.46 23.6507L297.383 92.7782L74.9968 114.792V118.999L301.028 96.5641L313.227 19.8648L134.309 7.94629Z" fill="#242424"/>
<g opacity="0.8">
<path opacity="0.8" fill-rule="evenodd" clip-rule="evenodd" d="M0.260498 22.6692L13.8616 114.232L277.471 115.213L308.319 2.05713L0.260498 22.6692Z" fill="#00B993"/>
</g>
<g opacity="0.8">
<path opacity="0.8" fill-rule="evenodd" clip-rule="evenodd" d="M0.260498 22.6692L13.8616 114.232L277.471 115.213L308.319 2.05713L0.260498 22.6692Z" fill="#5CA720"/>
</g>
<path d="M134.309 12.1527V7.9462L29.1455 0.935303L18.2085 124.748L74.9968 119.139V114.933L22.8357 120.121L32.9314 5.5625L134.309 12.1527Z" fill="#242424"/>
<path d="M61.2554 88.9922C55.9271 88.9922 53.2629 86.1879 53.2629 80.5792V47.7681C53.2629 42.0192 55.9271 39.2148 61.2554 39.2148H67.5652C72.8935 39.2148 75.5576 42.0192 75.5576 47.7681V80.5792C75.5576 86.1879 72.8935 88.9922 67.5652 88.9922H61.2554ZM62.7978 82.9629H66.163C67.9858 82.9629 68.8271 81.9813 68.8271 80.0183V48.1888C68.8271 46.2257 67.8456 45.2442 65.8826 45.2442H62.7978C60.8347 45.2442 59.8532 46.2257 59.8532 48.1888V80.1585C59.8532 81.9813 60.8347 82.9629 62.7978 82.9629Z" fill="white"/>
<path d="M96.8708 60.3878V66.4171H88.1772V88.9922H81.4468V39.2148H97.9925V45.2442H88.1772V60.3878H96.8708V60.3878Z" fill="white"/>
<path d="M117.903 60.3878V66.4171H109.21V88.9922H102.479V39.2148H119.025V45.2442H109.21V60.3878H117.903V60.3878Z" fill="white"/>
<path d="M123.512 88.9922V39.2148H140.058V45.2442H130.243V60.3878H138.936V66.4171H130.243V82.9629H140.058V88.9922H123.512Z" fill="white"/>
<path d="M144.825 39.2148H157.866C162.913 39.2148 165.437 42.0192 165.437 47.7681V60.1073C165.437 64.4541 164.175 67.2584 161.511 68.3802L166.138 89.1325H159.829L155.482 68.9411H151.416V89.1325H144.685V39.2148H144.825ZM151.416 63.1921H155.762C157.725 63.1921 158.707 61.9302 158.707 59.5465V48.7497C158.707 46.366 157.725 45.104 155.762 45.104H151.416V63.1921Z" fill="white"/>
<path d="M195.304 44.4028H197.267L200.492 49.3105L203.577 44.4028H205.54V54.779H203.717V47.3474L200.492 52.255L197.267 47.3474V54.779H195.444V44.4028H195.304Z" fill="white"/>
<path d="M211.149 44.4028H218.861V46.0854H212.972V48.7496H218.16V50.4322H212.972V53.2366H219.001V54.9192H211.149V44.4028V44.4028Z" fill="white"/>
<path d="M223.628 49.5911C223.628 46.6465 225.871 44.1226 228.956 44.1226C230.779 44.1226 231.901 44.6834 233.023 45.5247L231.901 46.9269C231.059 46.2258 230.358 45.8052 228.956 45.8052C226.993 45.8052 225.591 47.4878 225.591 49.4508C225.591 51.5541 226.993 53.2367 229.096 53.2367C230.078 53.2367 230.919 52.9563 231.62 52.3954V50.4324H228.956V48.89H233.443V53.2367C232.462 54.078 230.919 54.9193 229.096 54.9193C225.731 54.9193 223.628 52.6759 223.628 49.5911Z" fill="white"/>
<path d="M242.417 44.2629H244.1L248.727 54.7793H246.764L245.642 52.2554H240.735L239.613 54.7793H237.79L242.417 44.2629ZM245.081 50.713L243.259 46.5064L241.436 50.713H245.081Z" fill="white"/>
<path d="M197.688 71.0442L198.809 69.7822C199.791 70.6235 200.772 71.1844 202.034 71.1844C203.156 71.1844 203.857 70.6235 203.857 69.9224C203.857 69.2213 203.436 68.8007 201.473 68.38C199.23 67.8192 197.968 67.2583 197.968 65.2952C197.968 63.4724 199.51 62.2104 201.473 62.2104C203.016 62.2104 204.138 62.6311 205.259 63.4724L204.278 64.8746C203.296 64.1735 202.455 63.7528 201.473 63.7528C200.352 63.7528 199.791 64.3137 199.791 65.0148C199.791 65.8561 200.211 66.1366 202.315 66.6974C204.558 67.2583 205.68 67.9594 205.68 69.7822C205.68 71.7453 204.138 72.867 201.894 72.867C200.352 72.7268 198.809 72.1659 197.688 71.0442Z" fill="white"/>
<path d="M214.233 62.2104H215.916L220.543 72.7268H218.58L217.458 70.2029H212.551L211.429 72.7268H209.606L214.233 62.2104ZM216.898 68.5203L215.075 64.3137L213.252 68.5203H216.898Z" fill="white"/>
<path d="M225.31 62.2104H227.133V70.904H232.602V72.5866H225.31V62.2104V62.2104Z" fill="white"/>
<path d="M237.51 62.2104H245.222V63.8931H239.333V66.5572H244.521V68.2398H239.333V71.0442H245.362V72.7268H237.51V62.2104V62.2104Z" fill="white"/>
<path d="M188.293 82.8228L188.994 82.1217C189.415 82.4021 189.835 82.6825 190.256 82.6825C190.536 82.6825 190.677 82.5423 190.677 82.4021C190.677 82.2619 190.536 82.1217 189.976 81.9814C189.134 81.8412 188.433 81.5608 188.433 80.7195C188.433 80.0184 188.994 79.4575 189.976 79.4575C190.677 79.4575 191.238 79.5977 191.658 80.0184L191.097 80.8597C190.677 80.5793 190.256 80.439 189.976 80.439C189.695 80.439 189.555 80.5793 189.555 80.7195C189.555 80.8597 189.695 80.9999 190.256 81.1401C191.238 81.2804 191.798 81.701 191.798 82.4021C191.798 83.2434 191.097 83.8043 190.116 83.8043C189.415 83.5238 188.714 83.2434 188.293 82.8228Z" fill="white"/>
<path d="M197.127 79.3171H198.248V80.8595H199.651V79.3171H200.772V83.3835H199.651V81.8411H198.248V83.3835H197.127V79.3171Z" fill="white"/>
<path d="M206.101 81.4204C206.101 80.2987 207.082 79.3171 208.344 79.3171C209.606 79.3171 210.588 80.2987 210.588 81.4204C210.588 82.5422 209.606 83.5237 208.344 83.5237C207.082 83.5237 206.101 82.5422 206.101 81.4204ZM209.326 81.4204C209.326 80.8595 208.905 80.2987 208.204 80.2987C207.643 80.2987 207.222 80.8595 207.222 81.4204C207.222 81.9813 207.643 82.5422 208.204 82.5422C208.905 82.5422 209.326 81.9813 209.326 81.4204Z" fill="white"/>
<path d="M215.776 79.3171H217.598C218.58 79.3171 219.281 79.878 219.281 80.7193C219.281 81.7008 218.58 82.2617 217.458 82.2617H216.897V83.3835H215.776V79.3171V79.3171ZM217.458 81.4204C217.879 81.4204 218.159 81.14 218.159 80.8595C218.159 80.4389 217.879 80.2987 217.458 80.2987H216.897V81.4204H217.458Z" fill="white"/>
<path d="M230.779 79.3171H231.901L233.583 81.4204V79.3171H234.705V83.3835H233.724L231.901 81.14V83.3835H230.779V79.3171Z" fill="white"/>
<path d="M239.893 81.4204C239.893 80.2987 240.875 79.3171 242.137 79.3171C243.399 79.3171 244.38 80.2987 244.38 81.4204C244.38 82.5422 243.399 83.5237 242.137 83.5237C240.875 83.5237 239.893 82.5422 239.893 81.4204ZM243.259 81.4204C243.259 80.8595 242.838 80.2987 242.137 80.2987C241.576 80.2987 241.155 80.8595 241.155 81.4204C241.155 81.9813 241.576 82.5422 242.137 82.5422C242.838 82.5422 243.259 81.9813 243.259 81.4204Z" fill="white"/>
<path d="M249.147 79.3171H250.409L251.111 81.7008L251.952 79.3171H252.933L253.775 81.7008L254.476 79.3171H255.597L254.195 83.3835H253.214L252.372 80.9998L251.531 83.3835H250.55L249.147 79.3171Z" fill="white"/>
</g>
<defs>
<clipPath id="clip0_54_548">
<rect width="312.967" height="123.812" fill="white" transform="translate(0.260498 0.935303)"/>
</clipPath>
</defs>
</svg>
